<?xml version="1.0" standalone="no"?><!DOCTYPE svg PUBLIC "-//W3C//DTD SVG 1.1//EN" "http://www.w3.org/Graphics/SVG/1.1/DTD/svg11.dtd"><svg t="1763790080789" class="icon" viewBox="0 0 1137 1024" version="1.1" xmlns="http://www.w3.org/2000/svg" p-id="1603" xmlns:xlink="http://www.w3.org/1999/xlink" width="222.0703125" height="200"><path d="M939.975111 991.914667h-268.8a29.980444 29.980444 0 0 1-30.037333-29.980445v-124.245333H485.603556v124.245333a29.980444 29.980444 0 0 1-30.037334 29.980445H205.084444a29.980444 29.980444 0 0 1-30.037333-29.980445V533.219556c0-16.611556 13.425778-29.980444 30.037333-29.980445 16.668444 0 30.037333 13.368889 30.037334 29.980445v398.677333H425.528889v-124.188445c0-16.611556 13.368889-29.980444 30.037333-29.980444h215.608889c16.668444 0 30.094222 13.368889 30.094222 29.980444v124.188445h208.668445V533.219556c0-16.611556 13.425778-29.980444 30.037333-29.980445 16.611556 0 30.037333 13.368889 30.037333 29.980445v428.714666a30.037333 30.037333 0 0 1-30.037333 29.980445z m167.822222-444.871111a29.866667 29.866667 0 0 1-21.731555-9.272889L674.133333 103.879111a148.138667 148.138667 0 0 0-211.057777 0.568889L51.655111 537.6a29.866667 29.866667 0 1 1-43.349333-41.244444l412.046222-433.720889c83.626667-83.399111 213.674667-83.399111 296.675556-0.512l412.558222 434.346666a29.866667 29.866667 0 0 1-21.731556 50.517334zM350.037333 433.891556c0-22.186667 16.384-40.106667 36.522667-40.106667 20.138667 0 36.408889 17.976889 36.408889 40.106667 0 22.186667-16.270222 40.106667-36.408889 40.106666-20.138667 0-36.465778-17.92-36.465778-40.106666z m364.714667 0c0-22.186667 16.327111-40.106667 36.465778-40.106667 20.138667 0 36.465778 17.976889 36.465778 40.106667 0 22.186667-16.327111 40.106667-36.408889 40.106666-20.195556 0-36.522667-17.92-36.522667-40.106666z m-149.048889 178.688c-50.062222 0-92.672-36.579556-98.929778-84.992l20.252445-2.503112c5.006222 38.570667 38.912 67.527111 78.734222 67.527112 39.936 0 72.590222-28.444444 77.710222-67.527112l20.252445 2.503112a97.28 97.28 0 0 1-97.962667 84.992z" fill="#1296db" p-id="1604"></path></svg>